HIERARCHY
ROOT pelvis
{
  OFFSET 0 100 0
  CHANNELS 6 Xposition Yposition Zposition Zrotation Xrotation Yrotation
  JOINT pelvis_right_femur
  {
    OFFSET -10.78128 -3.44521 -0.5502486
    CHANNELS 3 Zrotation Xrotation Yrotation
    JOINT right_femur_tibia
    {
      OFFSET -0.8047443 -44.0398 -0.1307829
      CHANNELS 3 Zrotation Xrotation Yrotation
      JOINT right_tibia_foot
      {
        OFFSET 3.006224 -47.83518 -5
        CHANNELS 3 Zrotation Xrotation Yrotation
        End Site
        {
          OFFSET 0 -5 15
        }
      }
    }
  }
  JOINT pelvis_left_femur
  {
    OFFSET 10.78128 -3.44521 -0.5502486
    CHANNELS 3 Zrotation Xrotation Yrotation
    JOINT left_femur_tibia
    {
      OFFSET 0.8047443 -44.0398 -0.1307829
      CHANNELS 3 Zrotation Xrotation Yrotation
      JOINT left_tibia_foot
      {
        OFFSET -4.370144 -48.10324 -4.275266
        CHANNELS 3 Zrotation Xrotation Yrotation
        End Site
        {
          OFFSET 0 -5 15
        }
      }
    }
  }
  JOINT pelvis_spine1
  {
    OFFSET 0 6.468898 -3.129235
    CHANNELS 3 Zrotation Xrotation Yrotation
    JOINT spine1
    {
      OFFSET 0 23.15396 4.99043
      CHANNELS 3 Zrotation Xrotation Yrotation
      JOINT spine2
      {
        OFFSET 0 20.79997 -5.064912
        CHANNELS 3 Zrotation Xrotation Yrotation
        JOINT neck
        {
          OFFSET 0 14.38658 9.616178
          CHANNELS 3 Zrotation Xrotation Yrotation
          End Site
          {
            OFFSET 0 20 0
          }
        }
      }
      JOINT right_manubrium
      {
        OFFSET -5.722621 16.35077 3.967754
        CHANNELS 3 Zrotation Xrotation Yrotation
        JOINT right_clavicle
        {
          OFFSET -13.16364 1.694482 -4.693211
          CHANNELS 3 Zrotation Xrotation Yrotation
          JOINT right_humerus
          {
            OFFSET -28.5034 -0.3100689 -2.792744
            CHANNELS 3 Zrotation Xrotation Yrotation
            JOINT right_radius
            {
              OFFSET -25.15693 0.02248979 -1.271978
              CHANNELS 3 Zrotation Xrotation Yrotation
              End Site
              {
                OFFSET -15 0 0
              }
            }
          }
        }
      }
      JOINT left_manubrium
      {
        OFFSET 5.722621 16.35077 3.967754
        CHANNELS 3 Zrotation Xrotation Yrotation
        JOINT left_clavicle
        {
          OFFSET 13.16364 1.694482 -4.693211
          CHANNELS 3 Zrotation Xrotation Yrotation
          JOINT left_humerus
          {
            OFFSET 29.39168 -1.063119 -2.237045
            CHANNELS 3 Zrotation Xrotation Yrotation
            JOINT left_radius
            {
              OFFSET 24.59957 -0.9528479 0.9047498
              CHANNELS 3 Zrotation Xrotation Yrotation
              End Site
              {
                OFFSET 15 -0 -0
              }
            }
          }
        }
      }
    }
  }
}
MOTION
Frames: 23
Frame Time: 0.0416666666667
1648.542 103.6135 2512.205 4.413479 -2.326511 59.49599 3.528302 16.04641 3.930766 -0 13.90599 -0 0.06656522 -16.28384 -1.236703 2.283403 -27.32126 -2.109754 -0 20.56605 -0 -6.005662 -6.812521 19.21968 -0.611946 1.019755 8.41235 -0.5366874 9.332382 -3.203026 1.593984 21.87673 5.443712 2.308576 -18.05919 6.473146 1.127878 -22.21255 11.29988 79.01369 25.8762 -4.232977 -0 0 24.39482 -24.41909 10.54702 14.59785 4.192935 -15.96451 -2.569541 -93.54835 23.18221 26.14908 0 0 -12.1062 -1.356733 5.679407 16.23862
1654.887 102.5935 2514.725 4.327935 -1.969342 58.95885 2.293654 17.97338 4.132196 -0 17.48336 -0 0.9380651 -14.76683 -0.9041118 1.417404 -27.37577 -2.865009 -0 18.25974 -0 -5.666194 -6.958457 19.00507 -1.098122 0.3310786 8.800832 -0.8000983 9.323649 -3.069291 1.750124 21.59179 5.515034 2.304195 -18.28853 6.746752 0.9776806 -22.46184 11.06922 79.06477 25.80505 -3.938808 -0 0 24.89048 -25.57834 10.85183 15.18639 3.971644 -15.55588 -2.413252 -93.53851 23.01608 27.11442 0 0 -11.45081 -1.591763 5.586258 16.64752
1661.63 101.9985 2517.319 4.92278 -1.5191 58.68267 0.7532316 18.90636 4.461718 -0 23.88245 -0 1.907584 -11.10126 -1.209171 -0.4355374 -25.69773 -4.346724 -0 18.81327 -0 -5.237956 -7.606931 18.87216 -1.960866 -0.2973649 9.035562 -1.112409 9.36283 -2.843098 2.04512 21.57248 5.564069 2.298128 -18.27187 7.160575 1.066749 -22.0934 10.83809 79.74255 25.83203 -4.348416 -0 0 24.24141 -26.50053 11.47024 15.39876 3.698 -15.09271 -2.369256 -93.31374 23.10476 27.36844 0 0 -10.83947 -1.910128 5.736914 17.05735
1668.563 102.03 2519.935 5.799591 -1.143253 58.821 -0.5276163 18.11815 4.738151 -0 32.71974 -0 2.590964 -6.114631 -2.103338 -2.541342 -22.44984 -5.926758 -0 20.6271 -0 -4.643288 -8.556556 18.75706 -2.875005 -0.7216916 8.872275 -1.349968 9.515805 -2.762136 2.264024 21.72365 5.650753 2.293498 -18.19279 7.542567 1.459476 -21.33404 10.70253 80.82446 26.1391 -5.360381 -0 0 22.77838 -26.93506 12.14602 15.30486 3.351779 -14.77779 -2.515248 -92.9046 23.39675 27.00373 0 0 -10.33264 -2.161875 6.003938 17.41119
1675.382 102.7151 2522.48 6.607487 -1.042706 59.41477 -1.128379 15.16901 4.873126 -0 42.49122 -0 2.791663 -1.24516 -3.385247 -4.201714 -18.01864 -7.094619 -0 22.23794 -0 -3.936429 -9.62001 18.57397 -3.514163 -0.8389371 8.213718 -1.41472 9.846428 -3.037776 2.285247 21.90935 5.794772 2.27552 -18.13097 7.78262 2.080881 -20.43947 10.71307 82.12621 26.66802 -6.857764 -0 0 20.95988 -26.82279 12.70579 14.99864 2.997103 -14.8487 -2.85994 -92.19124 23.71948 25.95894 0 0 -10.12704 -2.171138 6.28409 17.53206
1681.826 103.8777 2524.86 7.195558 -1.301675 60.38171 -1.008758 10.22464 4.866039 -0 51.01662 -0 2.604148 2.157192 -4.801301 -5.126314 -12.90411 -7.731015 -0 22.69063 -0 -3.319529 -10.77182 18.25095 -3.706599 -0.6385671 7.154507 -1.293613 10.28568 -3.691784 2.135239 22.05686 5.983796 2.203936 -18.02043 7.914518 2.712095 -19.56732 10.82035 83.53791 27.14633 -8.667852 -0 0 19.16892 -26.32116 13.13799 14.5755 2.777486 -15.37396 -3.326986 -91.05928 23.92294 24.12069 0 0 -10.47367 -1.87875 6.566546 17.27948
1687.776 105.201 2527.03 7.565449 -1.81438 61.56842 -0.4446123 3.983997 4.718763 -0 56.23684 -0 2.265143 3.393449 -6.150427 -5.413295 -7.572815 -7.986511 -0 21.6687 -0 -3.003291 -12.08454 17.72987 -3.490596 -0.2107842 5.909005 -1.033038 10.64937 -4.574819 1.923694 22.17363 6.184467 2.043127 -17.75723 8.042364 3.106651 -18.7518 10.91026 84.98143 27.29855 -10.59878 -0 0 17.57779 -25.65267 13.49133 14.10668 2.828387 -16.23799 -3.800807 -89.51311 23.95515 21.46849 0 0 -11.57145 -1.355309 6.86437 16.64083
1693.276 106.3365 2529.022 7.76099 -2.342823 62.81913 0.1793384 -2.6388 4.382298 -0 56.92471 -0 1.960921 2.588435 -7.30498 -5.340293 -2.385507 -8.05286 -0 19.45909 -0 -3.066799 -13.59963 16.97946 -3.063657 0.2989539 4.706031 -0.6888874 10.76189 -5.483074 1.75843 22.30081 6.349603 1.793086 -17.31807 8.234669 3.116374 -17.95447 10.8818 86.3817 27.01563 -12.51163 -0 0 16.15058 -24.9673 13.77251 13.62273 3.194705 -17.25329 -4.187834 -87.67997 23.84588 18.14375 0 0 -13.47376 -0.721613 7.152787 15.70802
1698.488 107.0078 2530.934 7.805479 -2.647676 64.02128 0.5496752 -8.834126 3.79672 -0 53.03434 -0 1.733593 0.4818855 -8.197652 -5.177904 2.41682 -8.04565 -0 16.75831 -0 -3.429491 -15.25638 16.0246 -2.670463 0.7490534 3.709924 -0.297787 10.55619 -6.262559 1.699443 22.46514 6.430362 1.496804 -16.78762 8.478764 2.751252 -17.12395 10.70151 87.66812 26.3941 -14.35302 -0 0 14.7444 -24.30711 13.93882 13.11507 3.809433 -18.26699 -4.451438 -85.7476 23.66197 14.42549 0 0 -16.04584 -0.076043 7.384813 14.60996
1703.614 107.0749 2532.886 7.702893 -2.602131 65.11517 0.5355272 -14.07999 2.978919 -0 45.63706 -0 1.509676 -1.975185 -8.824389 -5.090802 6.703438 -8.0072 -0 14.38139 -0 -3.92395 -16.90207 14.96449 -2.489768 1.041213 2.986539 0.1206174 10.08986 -6.850332 1.754965 22.65908 6.392644 1.223523 -16.29999 8.701858 2.157815 -16.23381 10.407 88.78487 25.66393 -16.12582 -0 0 13.23414 -23.63859 13.94802 12.54959 4.533128 -19.19866 -4.605964 -83.89966 23.47543 10.65968 0 0 -18.99075 0.5273307 7.539668 13.46806
1708.827 106.549 2534.975 7.464829 -2.236548 66.08087 0.2252845 -18.17882 2.073975 -0 36.53312 -0 1.190906 -4.00216 -9.243336 -5.115057 10.43162 -7.955985 -0 12.98873 -0 -4.401705 -18.34654 13.95265 -2.566523 1.135605 2.510118 0.5440376 9.495116 -7.258196 1.900481 22.84807 6.22947 1.03793 -15.95826 8.824594 1.542412 -15.29559 10.07239 89.69916 25.06611 -17.82875 -0 0 11.59837 -22.9013 13.80288 11.88618 5.220132 -20.01843 -4.684012 -82.27923 23.34681 7.183863 0 0 -21.92778 1.066 7.649958 12.38421
1714.235 105.5666 2537.256 7.126736 -1.70986 66.91981 -0.1259061 -21.1909 1.319563 -0 27.69087 -0 0.7376446 -5.203756 -9.545544 -5.186203 13.6138 -7.921332 -0 12.93366 -0 -4.809044 -19.41449 13.13969 -2.809043 1.049539 2.198265 0.9344686 8.90931 -7.530715 2.101889 22.99115 5.962517 0.9705045 -15.78978 8.80946 1.08404 -14.35161 9.766737 90.40505 24.74712 -19.41093 -0 0 9.933099 -22.04809 13.56057 11.101 5.770399 -20.70446 -4.705602 -80.97897 23.31464 4.266845 0 0 -24.48862 1.53128 7.789231 11.44077
1719.878 104.3417 2539.751 6.743631 -1.234344 67.6388 -0.2184875 -23.30146 0.944305 -0 20.69666 -0 0.1999286 -5.581997 -9.811389 -5.194312 16.27542 -7.942287 -0 14.27538 -0 -5.198146 -19.96775 12.61163 -3.042444 0.8436304 1.958297 1.246039 8.425966 -7.707365 2.330904 23.06229 5.632723 1.004323 -15.75608 8.67953 0.8760165 -13.45745 9.530873 90.91879 24.71538 -20.76907 -0 0 8.397897 -21.07164 13.30949 10.20684 6.141499 -21.2151 -4.670069 -80.04857 23.38799 2.076179 0 0 -26.39368 1.919441 8.030583 10.69731
1725.754 103.1173 2542.463 6.376545 -0.9921892 68.23737 0.1626967 -24.65568 1.071267 -0 16.39645 -0 -0.3175507 -5.405533 -10.07758 -5.043361 18.40362 -8.043525 -0 16.92859 -0 -5.675936 -19.8952 12.36438 -3.088391 0.5969721 1.728294 1.4476 8.083893 -7.803657 2.567834 23.06426 5.287278 1.086071 -15.79652 8.502459 0.9162831 -12.66666 9.378924 91.26391 24.87013 -21.78397 -0 0 7.133645 -20.01829 13.13351 9.263996 6.323811 -21.49064 -4.571482 -79.51278 23.54774 0.6827864 0 0 -27.48098 2.22799 8.403225 10.18654
1731.837 102.1254 2545.38 6.083905 -1.076403 68.69823 1.066167 -25.21715 1.676165 -0 14.83062 -0 -0.7300615 -5.041723 -10.32107 -4.696277 19.88841 -8.213286 -0 20.85441 -0 -6.326625 -19.09196 12.33173 -2.836591 0.3790523 1.503283 1.540905 7.887985 -7.811883 2.793223 23.03203 4.972537 1.158431 -15.86752 8.351256 1.142989 -12.02564 9.315224 91.45088 25.0819 -22.3693 -0 0 6.205672 -18.98839 13.08333 8.374527 6.307112 -21.48082 -4.421041 -79.3955 23.76244 0.1001544 0 0 -27.6865 2.448275 8.873428 9.918567
1738.09 101.5598 2548.468 5.920598 -1.468621 68.98267 2.347444 -24.72369 2.59506 -0 15.41308 -0 -1.034887 -4.833035 -10.45659 -4.196317 20.46786 -8.397915 -0 26.15934 -0 -7.152275 -17.47088 12.4481 -2.28733 0.2332171 1.346722 1.559158 7.839655 -7.713302 2.976169 23.02351 4.735453 1.201704 -15.95044 8.260594 1.491393 -11.57879 9.351183 91.45599 25.28278 -22.50015 -0 0 5.609378 -18.11943 13.16163 7.658409 6.073223 -21.18339 -4.255232 -79.74014 24.01152 0.3347524 0 0 -27.00962 2.55389 9.356444 9.895105
1744.442 101.5515 2551.659 5.936338 -2.047301 69.03503 3.698595 -22.80216 3.569011 -0 17.19542 -0 -1.315488 -5.031795 -10.3566 -3.660346 19.71579 -8.511446 -0 32.97768 -0 -8.054504 -15.05007 12.70301 -1.563045 0.1827537 1.386432 1.545066 7.9533 -7.491304 3.072227 23.09553 4.622481 1.261807 -16.03005 8.198154 1.934877 -11.37683 9.50975 91.20563 25.51534 -22.20086 -0 0 5.334937 -17.5482 13.31645 7.217953 5.629261 -20.67474 -4.119214 -80.60389 24.29028 1.404621 0 0 -25.51619 2.499708 9.742185 10.11666
1750.784 102.1326 2554.848 6.16761 -2.621001 68.80249 4.755192 -19.23829 4.344229 -0 19.10407 -0 -1.669759 -5.756261 -9.911352 -3.232779 17.15068 -8.457538 -0 41.09603 -0 -8.854565 -12.10099 13.14882 -0.887317 0.2517746 1.778524 1.519974 8.245499 -7.138175 3.043574 23.26896 4.657401 1.431332 -16.07038 8.072469 2.47321 -11.47712 9.811273 90.58943 25.89212 -21.49593 -0 0 5.442468 -17.35841 13.44521 7.104493 5.056405 -20.1056 -4.034871 -81.99729 24.57323 3.284955 0 0 -23.40402 2.251586 9.916079 10.55897
1756.971 103.1954 2557.922 6.62642 -2.997224 68.27044 5.26563 -14.25622 4.807131 -0 20.19354 -0 -2.09273 -6.944678 -9.118873 -2.994794 12.52157 -8.165571 -0 49.49305 -0 -9.343062 -9.221017 13.86046 -0.510131 0.4699579 2.620425 1.462283 8.701702 -6.653304 2.899018 23.50328 4.799187 1.765881 -16.0196 7.794155 3.060562 -11.93036 10.24451 89.53089 26.45333 -20.35748 -0 0 6.076099 -17.54462 13.43065 7.307118 4.516334 -19.63347 -3.979222 -83.7829 24.76708 5.800873 0 0 -21.06364 1.834695 9.783885 11.13363
1762.883 104.4855 2560.8 7.276419 -3.081546 67.49437 5.216269 -8.542358 5.027716 -0 19.96721 -0 -2.417976 -8.356964 -8.122541 -2.877964 6.126579 -7.62099 -0 56.25083 -0 -9.362965 -7.139523 14.88403 -0.5674122 0.8395563 3.846967 1.315638 9.244312 -6.038663 2.714886 23.71186 4.932553 2.192489 -15.85541 7.366302 3.53902 -12.76384 10.74348 88.08133 27.02244 -18.70575 -0 0 7.388245 -18.0342 13.21143 7.77901 4.17702 -19.3068 -3.897606 -85.65818 24.75138 8.613161 0 0 -18.97701 1.332626 9.323963 11.71454
1768.486 105.6647 2563.462 7.969787 -2.933295 66.59539 4.820754 -2.907611 5.129786 -0 18.56797 -0 -2.426635 -9.714256 -7.103298 -2.671792 -1.198058 -6.855932 -0 59.20421 -0 -8.913624 -6.284215 16.18588 -0.9522079 1.300415 5.213262 1.034712 9.731163 -5.308175 2.581814 23.81343 4.953115 2.532829 -15.6452 6.914802 3.692118 -13.97644 11.19987 86.41871 27.26912 -16.49042 -0 0 9.448341 -18.75345 12.82252 8.485458 4.106525 -19.00548 -3.747231 -87.35535 24.51737 11.43894 0 0 -17.4196 0.8058891 8.636087 12.26508
1773.855 106.4234 2565.929 8.394199 -2.699631 65.70956 4.393589 2.109507 5.126564 -0 16.5837 -0 -2.058743 -10.93315 -6.104269 -2.136897 -8.504579 -5.912045 -0 57.00532 -0 -8.186634 -6.475945 17.58428 -1.346578 1.741064 6.41568 0.6400672 10.00332 -4.522934 2.503943 23.76226 4.884906 2.654879 -15.56345 6.594661 3.415179 -15.5327 11.51427 84.71687 27.02197 -13.79383 -0 0 12.21005 -19.65416 12.34362 9.424765 4.234946 -18.54252 -3.53004 -88.86842 24.21289 14.29563 0 0 -16.274 0.2492424 7.898973 12.89964
1779.132 106.5804 2568.238 8.18716 -2.496801 64.92413 4.178307 6.338232 4.932046 -0 14.64252 -0 -1.496637 -12.20484 -5.01646 -1.142888 -15.09981 -4.819725 -0 49.88719 -0 -7.451882 -7.062269 18.75203 -1.439545 2.032876 7.254101 0.2272519 9.981116 -3.821119 2.38 23.53457 4.866052 2.581443 -15.80571 6.455127 2.818987 -17.33331 11.64731 83.04823 26.4859 -10.87362 -0 0 15.47852 -20.68026 11.82167 10.59218 4.410133 -17.85975 -3.283593 -90.34544 23.98229 17.35963 0 0 -15.23987 -0.3224906 7.242699 13.72717
